<mxfile host="app.diagrams.net" modified="2023-06-21T10:47:14.155Z" agent="Mozilla/5.0 (Macintosh; Intel Mac OS X 10_15_7) AppleWebKit/537.36 (KHTML, like Gecko) Chrome/114.0.0.0 Safari/537.36" etag="RDpI9Uta2d4URyBeF80b" version="21.5.0" type="device">
  <diagram name="Page-1" id="6PvL9szyYoYwaoiszXjq">
    <mxGraphModel dx="852" dy="1658" grid="1" gridSize="10" guides="1" tooltips="1" connect="1" arrows="1" fold="1" page="1" pageScale="1" pageWidth="850" pageHeight="1100" math="0" shadow="0">
      <root>
        <mxCell id="0" />
        <mxCell id="1" parent="0" />
        <mxCell id="jJ58ylBw81bUSnSEe0YI-33" value="&lt;font style=&quot;font-size: 24px;&quot;&gt;shortest path&lt;/font&gt;" style="rounded=0;whiteSpace=wrap;html=1;" parent="1" vertex="1">
          <mxGeometry x="120" y="520" width="120" height="60" as="geometry" />
        </mxCell>
        <mxCell id="jJ58ylBw81bUSnSEe0YI-34" value="&lt;font style=&quot;font-size: 24px;&quot;&gt;previous node&lt;/font&gt;" style="rounded=0;whiteSpace=wrap;html=1;" parent="1" vertex="1">
          <mxGeometry x="240" y="520" width="120" height="60" as="geometry" />
        </mxCell>
        <mxCell id="jJ58ylBw81bUSnSEe0YI-38" value="&lt;font style=&quot;font-size: 24px;&quot;&gt;vertex&lt;/font&gt;" style="rounded=0;whiteSpace=wrap;html=1;" parent="1" vertex="1">
          <mxGeometry y="520" width="120" height="60" as="geometry" />
        </mxCell>
        <mxCell id="jJ58ylBw81bUSnSEe0YI-40" value="&lt;font style=&quot;font-size: 24px;&quot;&gt;0&lt;/font&gt;" style="rounded=0;whiteSpace=wrap;html=1;" parent="1" vertex="1">
          <mxGeometry x="120" y="580" width="120" height="60" as="geometry" />
        </mxCell>
        <mxCell id="jJ58ylBw81bUSnSEe0YI-41" value="&lt;font style=&quot;font-size: 24px;&quot;&gt;unone&lt;/font&gt;" style="rounded=0;whiteSpace=wrap;html=1;" parent="1" vertex="1">
          <mxGeometry x="240" y="580" width="120" height="60" as="geometry" />
        </mxCell>
        <mxCell id="jJ58ylBw81bUSnSEe0YI-46" value="&lt;font style=&quot;font-size: 24px;&quot;&gt;a&lt;/font&gt;" style="rounded=0;whiteSpace=wrap;html=1;" parent="1" vertex="1">
          <mxGeometry y="580" width="120" height="60" as="geometry" />
        </mxCell>
        <mxCell id="jJ58ylBw81bUSnSEe0YI-47" value="&lt;font style=&quot;font-size: 24px;&quot;&gt;b&lt;/font&gt;" style="rounded=0;whiteSpace=wrap;html=1;" parent="1" vertex="1">
          <mxGeometry y="640" width="120" height="60" as="geometry" />
        </mxCell>
        <mxCell id="jJ58ylBw81bUSnSEe0YI-48" value="&lt;font style=&quot;font-size: 24px;&quot;&gt;infinity&lt;/font&gt;" style="rounded=0;whiteSpace=wrap;html=1;" parent="1" vertex="1">
          <mxGeometry x="120" y="640" width="120" height="60" as="geometry" />
        </mxCell>
        <mxCell id="jJ58ylBw81bUSnSEe0YI-49" value="&lt;span style=&quot;font-size: 24px;&quot;&gt;empty&lt;/span&gt;" style="rounded=0;whiteSpace=wrap;html=1;" parent="1" vertex="1">
          <mxGeometry x="240" y="640" width="120" height="60" as="geometry" />
        </mxCell>
        <mxCell id="jJ58ylBw81bUSnSEe0YI-54" value="&lt;font style=&quot;font-size: 24px;&quot;&gt;c&lt;/font&gt;" style="rounded=0;whiteSpace=wrap;html=1;" parent="1" vertex="1">
          <mxGeometry y="700" width="120" height="60" as="geometry" />
        </mxCell>
        <mxCell id="jJ58ylBw81bUSnSEe0YI-55" value="&lt;font style=&quot;font-size: 24px;&quot;&gt;infinity&lt;/font&gt;" style="rounded=0;whiteSpace=wrap;html=1;" parent="1" vertex="1">
          <mxGeometry x="120" y="700" width="120" height="60" as="geometry" />
        </mxCell>
        <mxCell id="jJ58ylBw81bUSnSEe0YI-56" value="&lt;font style=&quot;font-size: 24px;&quot;&gt;empty&lt;/font&gt;" style="rounded=0;whiteSpace=wrap;html=1;" parent="1" vertex="1">
          <mxGeometry x="240" y="700" width="120" height="60" as="geometry" />
        </mxCell>
        <mxCell id="jJ58ylBw81bUSnSEe0YI-61" value="&lt;font style=&quot;font-size: 24px;&quot;&gt;infinity&lt;/font&gt;" style="rounded=0;whiteSpace=wrap;html=1;" parent="1" vertex="1">
          <mxGeometry x="120" y="760" width="120" height="60" as="geometry" />
        </mxCell>
        <mxCell id="jJ58ylBw81bUSnSEe0YI-62" value="&lt;font style=&quot;font-size: 24px;&quot;&gt;d&lt;/font&gt;" style="rounded=0;whiteSpace=wrap;html=1;" parent="1" vertex="1">
          <mxGeometry y="760" width="120" height="60" as="geometry" />
        </mxCell>
        <mxCell id="jJ58ylBw81bUSnSEe0YI-63" value="&lt;font style=&quot;font-size: 24px;&quot;&gt;empty&lt;/font&gt;" style="rounded=0;whiteSpace=wrap;html=1;" parent="1" vertex="1">
          <mxGeometry x="240" y="760" width="120" height="60" as="geometry" />
        </mxCell>
        <mxCell id="jJ58ylBw81bUSnSEe0YI-68" value="&lt;font style=&quot;font-size: 24px;&quot;&gt;e&lt;/font&gt;" style="rounded=0;whiteSpace=wrap;html=1;" parent="1" vertex="1">
          <mxGeometry y="820" width="120" height="60" as="geometry" />
        </mxCell>
        <mxCell id="jJ58ylBw81bUSnSEe0YI-69" value="&lt;font style=&quot;font-size: 24px;&quot;&gt;infinity&lt;/font&gt;" style="rounded=0;whiteSpace=wrap;html=1;" parent="1" vertex="1">
          <mxGeometry x="120" y="820" width="120" height="60" as="geometry" />
        </mxCell>
        <mxCell id="jJ58ylBw81bUSnSEe0YI-71" value="&lt;font style=&quot;font-size: 24px;&quot;&gt;empty&lt;/font&gt;" style="rounded=0;whiteSpace=wrap;html=1;" parent="1" vertex="1">
          <mxGeometry x="240" y="820" width="120" height="60" as="geometry" />
        </mxCell>
        <mxCell id="jJ58ylBw81bUSnSEe0YI-75" value="&lt;font style=&quot;font-size: 24px;&quot;&gt;f&lt;/font&gt;" style="rounded=0;whiteSpace=wrap;html=1;" parent="1" vertex="1">
          <mxGeometry y="880" width="120" height="60" as="geometry" />
        </mxCell>
        <mxCell id="jJ58ylBw81bUSnSEe0YI-76" value="&lt;font style=&quot;font-size: 24px;&quot;&gt;infinity&lt;/font&gt;" style="rounded=0;whiteSpace=wrap;html=1;" parent="1" vertex="1">
          <mxGeometry x="120" y="880" width="120" height="60" as="geometry" />
        </mxCell>
        <mxCell id="jJ58ylBw81bUSnSEe0YI-77" value="&lt;font style=&quot;font-size: 24px;&quot;&gt;empty&lt;/font&gt;" style="rounded=0;whiteSpace=wrap;html=1;" parent="1" vertex="1">
          <mxGeometry x="240" y="880" width="120" height="60" as="geometry" />
        </mxCell>
        <mxCell id="jJ58ylBw81bUSnSEe0YI-78" value="&lt;font style=&quot;font-size: 24px;&quot;&gt;shortest path&lt;/font&gt;" style="rounded=0;whiteSpace=wrap;html=1;" parent="1" vertex="1">
          <mxGeometry x="520" y="520" width="120" height="60" as="geometry" />
        </mxCell>
        <mxCell id="jJ58ylBw81bUSnSEe0YI-79" value="&lt;font style=&quot;font-size: 24px;&quot;&gt;previous node&lt;/font&gt;" style="rounded=0;whiteSpace=wrap;html=1;" parent="1" vertex="1">
          <mxGeometry x="640" y="520" width="120" height="60" as="geometry" />
        </mxCell>
        <mxCell id="jJ58ylBw81bUSnSEe0YI-80" value="&lt;font style=&quot;font-size: 24px;&quot;&gt;vertex&lt;/font&gt;" style="rounded=0;whiteSpace=wrap;html=1;" parent="1" vertex="1">
          <mxGeometry x="400" y="520" width="120" height="60" as="geometry" />
        </mxCell>
        <mxCell id="jJ58ylBw81bUSnSEe0YI-81" value="&lt;font style=&quot;font-size: 24px;&quot;&gt;0&lt;/font&gt;" style="rounded=0;whiteSpace=wrap;html=1;" parent="1" vertex="1">
          <mxGeometry x="520" y="580" width="120" height="60" as="geometry" />
        </mxCell>
        <mxCell id="jJ58ylBw81bUSnSEe0YI-82" value="&lt;font style=&quot;font-size: 24px;&quot;&gt;unone&lt;/font&gt;" style="rounded=0;whiteSpace=wrap;html=1;" parent="1" vertex="1">
          <mxGeometry x="640" y="580" width="120" height="60" as="geometry" />
        </mxCell>
        <mxCell id="jJ58ylBw81bUSnSEe0YI-83" value="&lt;font style=&quot;font-size: 24px;&quot;&gt;a&lt;/font&gt;" style="rounded=0;whiteSpace=wrap;html=1;" parent="1" vertex="1">
          <mxGeometry x="400" y="580" width="120" height="60" as="geometry" />
        </mxCell>
        <mxCell id="jJ58ylBw81bUSnSEe0YI-84" value="&lt;font style=&quot;font-size: 24px;&quot;&gt;b&lt;/font&gt;" style="rounded=0;whiteSpace=wrap;html=1;" parent="1" vertex="1">
          <mxGeometry x="400" y="640" width="120" height="60" as="geometry" />
        </mxCell>
        <mxCell id="jJ58ylBw81bUSnSEe0YI-85" value="&lt;font style=&quot;font-size: 24px;&quot;&gt;9&lt;/font&gt;" style="rounded=0;whiteSpace=wrap;html=1;" parent="1" vertex="1">
          <mxGeometry x="520" y="640" width="120" height="60" as="geometry" />
        </mxCell>
        <mxCell id="jJ58ylBw81bUSnSEe0YI-86" value="&lt;span style=&quot;font-size: 24px;&quot;&gt;a&lt;/span&gt;" style="rounded=0;whiteSpace=wrap;html=1;" parent="1" vertex="1">
          <mxGeometry x="640" y="640" width="120" height="60" as="geometry" />
        </mxCell>
        <mxCell id="jJ58ylBw81bUSnSEe0YI-87" value="&lt;font style=&quot;font-size: 24px;&quot;&gt;c&lt;/font&gt;" style="rounded=0;whiteSpace=wrap;html=1;" parent="1" vertex="1">
          <mxGeometry x="400" y="700" width="120" height="60" as="geometry" />
        </mxCell>
        <mxCell id="jJ58ylBw81bUSnSEe0YI-88" value="&lt;font style=&quot;font-size: 24px;&quot;&gt;3&lt;/font&gt;" style="rounded=0;whiteSpace=wrap;html=1;" parent="1" vertex="1">
          <mxGeometry x="520" y="700" width="120" height="60" as="geometry" />
        </mxCell>
        <mxCell id="jJ58ylBw81bUSnSEe0YI-89" value="&lt;font style=&quot;font-size: 24px;&quot;&gt;a&lt;/font&gt;" style="rounded=0;whiteSpace=wrap;html=1;" parent="1" vertex="1">
          <mxGeometry x="640" y="700" width="120" height="60" as="geometry" />
        </mxCell>
        <mxCell id="jJ58ylBw81bUSnSEe0YI-90" value="&lt;font style=&quot;font-size: 24px;&quot;&gt;infinity&lt;/font&gt;" style="rounded=0;whiteSpace=wrap;html=1;" parent="1" vertex="1">
          <mxGeometry x="520" y="760" width="120" height="60" as="geometry" />
        </mxCell>
        <mxCell id="jJ58ylBw81bUSnSEe0YI-91" value="&lt;font style=&quot;font-size: 24px;&quot;&gt;d&lt;/font&gt;" style="rounded=0;whiteSpace=wrap;html=1;" parent="1" vertex="1">
          <mxGeometry x="400" y="760" width="120" height="60" as="geometry" />
        </mxCell>
        <mxCell id="jJ58ylBw81bUSnSEe0YI-92" value="&lt;font style=&quot;font-size: 24px;&quot;&gt;empty&lt;/font&gt;" style="rounded=0;whiteSpace=wrap;html=1;" parent="1" vertex="1">
          <mxGeometry x="640" y="760" width="120" height="60" as="geometry" />
        </mxCell>
        <mxCell id="jJ58ylBw81bUSnSEe0YI-93" value="&lt;font style=&quot;font-size: 24px;&quot;&gt;e&lt;/font&gt;" style="rounded=0;whiteSpace=wrap;html=1;" parent="1" vertex="1">
          <mxGeometry x="400" y="820" width="120" height="60" as="geometry" />
        </mxCell>
        <mxCell id="jJ58ylBw81bUSnSEe0YI-94" value="&lt;font style=&quot;font-size: 24px;&quot;&gt;infinity&lt;/font&gt;" style="rounded=0;whiteSpace=wrap;html=1;" parent="1" vertex="1">
          <mxGeometry x="520" y="820" width="120" height="60" as="geometry" />
        </mxCell>
        <mxCell id="jJ58ylBw81bUSnSEe0YI-95" value="&lt;font style=&quot;font-size: 24px;&quot;&gt;empty&lt;/font&gt;" style="rounded=0;whiteSpace=wrap;html=1;" parent="1" vertex="1">
          <mxGeometry x="640" y="820" width="120" height="60" as="geometry" />
        </mxCell>
        <mxCell id="jJ58ylBw81bUSnSEe0YI-96" value="&lt;font style=&quot;font-size: 24px;&quot;&gt;f&lt;/font&gt;" style="rounded=0;whiteSpace=wrap;html=1;" parent="1" vertex="1">
          <mxGeometry x="400" y="880" width="120" height="60" as="geometry" />
        </mxCell>
        <mxCell id="jJ58ylBw81bUSnSEe0YI-97" value="&lt;font style=&quot;font-size: 24px;&quot;&gt;infinity&lt;/font&gt;" style="rounded=0;whiteSpace=wrap;html=1;" parent="1" vertex="1">
          <mxGeometry x="520" y="880" width="120" height="60" as="geometry" />
        </mxCell>
        <mxCell id="jJ58ylBw81bUSnSEe0YI-98" value="&lt;font style=&quot;font-size: 24px;&quot;&gt;empty&lt;/font&gt;" style="rounded=0;whiteSpace=wrap;html=1;" parent="1" vertex="1">
          <mxGeometry x="640" y="880" width="120" height="60" as="geometry" />
        </mxCell>
        <mxCell id="jJ58ylBw81bUSnSEe0YI-99" value="&lt;font style=&quot;font-size: 24px;&quot;&gt;shortest path&lt;/font&gt;" style="rounded=0;whiteSpace=wrap;html=1;" parent="1" vertex="1">
          <mxGeometry x="920" y="520" width="120" height="60" as="geometry" />
        </mxCell>
        <mxCell id="jJ58ylBw81bUSnSEe0YI-100" value="&lt;font style=&quot;font-size: 24px;&quot;&gt;previous node&lt;/font&gt;" style="rounded=0;whiteSpace=wrap;html=1;" parent="1" vertex="1">
          <mxGeometry x="1040" y="520" width="120" height="60" as="geometry" />
        </mxCell>
        <mxCell id="jJ58ylBw81bUSnSEe0YI-101" value="&lt;font style=&quot;font-size: 24px;&quot;&gt;vertex&lt;/font&gt;" style="rounded=0;whiteSpace=wrap;html=1;" parent="1" vertex="1">
          <mxGeometry x="800" y="520" width="120" height="60" as="geometry" />
        </mxCell>
        <mxCell id="jJ58ylBw81bUSnSEe0YI-102" value="&lt;font style=&quot;font-size: 24px;&quot;&gt;0&lt;/font&gt;" style="rounded=0;whiteSpace=wrap;html=1;" parent="1" vertex="1">
          <mxGeometry x="920" y="580" width="120" height="60" as="geometry" />
        </mxCell>
        <mxCell id="jJ58ylBw81bUSnSEe0YI-103" value="&lt;font style=&quot;font-size: 24px;&quot;&gt;unone&lt;/font&gt;" style="rounded=0;whiteSpace=wrap;html=1;" parent="1" vertex="1">
          <mxGeometry x="1040" y="580" width="120" height="60" as="geometry" />
        </mxCell>
        <mxCell id="jJ58ylBw81bUSnSEe0YI-104" value="&lt;font style=&quot;font-size: 24px;&quot;&gt;a&lt;/font&gt;" style="rounded=0;whiteSpace=wrap;html=1;" parent="1" vertex="1">
          <mxGeometry x="800" y="580" width="120" height="60" as="geometry" />
        </mxCell>
        <mxCell id="jJ58ylBw81bUSnSEe0YI-105" value="&lt;font style=&quot;font-size: 24px;&quot;&gt;b&lt;/font&gt;" style="rounded=0;whiteSpace=wrap;html=1;" parent="1" vertex="1">
          <mxGeometry x="800" y="640" width="120" height="60" as="geometry" />
        </mxCell>
        <mxCell id="jJ58ylBw81bUSnSEe0YI-106" value="&lt;font style=&quot;font-size: 24px;&quot;&gt;4&lt;/font&gt;" style="rounded=0;whiteSpace=wrap;html=1;" parent="1" vertex="1">
          <mxGeometry x="920" y="640" width="120" height="60" as="geometry" />
        </mxCell>
        <mxCell id="jJ58ylBw81bUSnSEe0YI-107" value="&lt;span style=&quot;font-size: 24px;&quot;&gt;c&lt;/span&gt;" style="rounded=0;whiteSpace=wrap;html=1;" parent="1" vertex="1">
          <mxGeometry x="1040" y="640" width="120" height="60" as="geometry" />
        </mxCell>
        <mxCell id="jJ58ylBw81bUSnSEe0YI-108" value="&lt;font style=&quot;font-size: 24px;&quot;&gt;c&lt;/font&gt;" style="rounded=0;whiteSpace=wrap;html=1;" parent="1" vertex="1">
          <mxGeometry x="800" y="700" width="120" height="60" as="geometry" />
        </mxCell>
        <mxCell id="jJ58ylBw81bUSnSEe0YI-109" value="&lt;font style=&quot;font-size: 24px;&quot;&gt;3&lt;/font&gt;" style="rounded=0;whiteSpace=wrap;html=1;" parent="1" vertex="1">
          <mxGeometry x="920" y="700" width="120" height="60" as="geometry" />
        </mxCell>
        <mxCell id="jJ58ylBw81bUSnSEe0YI-110" value="&lt;font style=&quot;font-size: 24px;&quot;&gt;a&lt;/font&gt;" style="rounded=0;whiteSpace=wrap;html=1;" parent="1" vertex="1">
          <mxGeometry x="1040" y="700" width="120" height="60" as="geometry" />
        </mxCell>
        <mxCell id="jJ58ylBw81bUSnSEe0YI-111" value="&lt;font style=&quot;font-size: 24px;&quot;&gt;6&lt;/font&gt;" style="rounded=0;whiteSpace=wrap;html=1;" parent="1" vertex="1">
          <mxGeometry x="920" y="760" width="120" height="60" as="geometry" />
        </mxCell>
        <mxCell id="jJ58ylBw81bUSnSEe0YI-112" value="&lt;font style=&quot;font-size: 24px;&quot;&gt;d&lt;/font&gt;" style="rounded=0;whiteSpace=wrap;html=1;" parent="1" vertex="1">
          <mxGeometry x="800" y="760" width="120" height="60" as="geometry" />
        </mxCell>
        <mxCell id="jJ58ylBw81bUSnSEe0YI-113" value="&lt;span style=&quot;font-size: 24px;&quot;&gt;c&lt;/span&gt;" style="rounded=0;whiteSpace=wrap;html=1;" parent="1" vertex="1">
          <mxGeometry x="1040" y="760" width="120" height="60" as="geometry" />
        </mxCell>
        <mxCell id="jJ58ylBw81bUSnSEe0YI-114" value="&lt;font style=&quot;font-size: 24px;&quot;&gt;e&lt;/font&gt;" style="rounded=0;whiteSpace=wrap;html=1;" parent="1" vertex="1">
          <mxGeometry x="800" y="820" width="120" height="60" as="geometry" />
        </mxCell>
        <mxCell id="jJ58ylBw81bUSnSEe0YI-115" value="&lt;font style=&quot;font-size: 24px;&quot;&gt;infinity&lt;/font&gt;" style="rounded=0;whiteSpace=wrap;html=1;" parent="1" vertex="1">
          <mxGeometry x="920" y="820" width="120" height="60" as="geometry" />
        </mxCell>
        <mxCell id="jJ58ylBw81bUSnSEe0YI-116" value="&lt;font style=&quot;font-size: 24px;&quot;&gt;empty&lt;/font&gt;" style="rounded=0;whiteSpace=wrap;html=1;" parent="1" vertex="1">
          <mxGeometry x="1040" y="820" width="120" height="60" as="geometry" />
        </mxCell>
        <mxCell id="jJ58ylBw81bUSnSEe0YI-117" value="&lt;font style=&quot;font-size: 24px;&quot;&gt;f&lt;/font&gt;" style="rounded=0;whiteSpace=wrap;html=1;" parent="1" vertex="1">
          <mxGeometry x="800" y="880" width="120" height="60" as="geometry" />
        </mxCell>
        <mxCell id="jJ58ylBw81bUSnSEe0YI-118" value="&lt;font style=&quot;font-size: 24px;&quot;&gt;infinity&lt;/font&gt;" style="rounded=0;whiteSpace=wrap;html=1;" parent="1" vertex="1">
          <mxGeometry x="920" y="880" width="120" height="60" as="geometry" />
        </mxCell>
        <mxCell id="jJ58ylBw81bUSnSEe0YI-119" value="&lt;font style=&quot;font-size: 24px;&quot;&gt;empty&lt;/font&gt;" style="rounded=0;whiteSpace=wrap;html=1;" parent="1" vertex="1">
          <mxGeometry x="1040" y="880" width="120" height="60" as="geometry" />
        </mxCell>
        <mxCell id="jJ58ylBw81bUSnSEe0YI-120" value="&lt;font style=&quot;font-size: 24px;&quot;&gt;shortest path&lt;/font&gt;" style="rounded=0;whiteSpace=wrap;html=1;" parent="1" vertex="1">
          <mxGeometry x="1320" y="520" width="120" height="60" as="geometry" />
        </mxCell>
        <mxCell id="jJ58ylBw81bUSnSEe0YI-121" value="&lt;font style=&quot;font-size: 24px;&quot;&gt;previous node&lt;/font&gt;" style="rounded=0;whiteSpace=wrap;html=1;" parent="1" vertex="1">
          <mxGeometry x="1440" y="520" width="120" height="60" as="geometry" />
        </mxCell>
        <mxCell id="jJ58ylBw81bUSnSEe0YI-122" value="&lt;font style=&quot;font-size: 24px;&quot;&gt;vertex&lt;/font&gt;" style="rounded=0;whiteSpace=wrap;html=1;" parent="1" vertex="1">
          <mxGeometry x="1200" y="520" width="120" height="60" as="geometry" />
        </mxCell>
        <mxCell id="jJ58ylBw81bUSnSEe0YI-123" value="&lt;font style=&quot;font-size: 24px;&quot;&gt;0&lt;/font&gt;" style="rounded=0;whiteSpace=wrap;html=1;" parent="1" vertex="1">
          <mxGeometry x="1320" y="580" width="120" height="60" as="geometry" />
        </mxCell>
        <mxCell id="jJ58ylBw81bUSnSEe0YI-124" value="&lt;font style=&quot;font-size: 24px;&quot;&gt;unone&lt;/font&gt;" style="rounded=0;whiteSpace=wrap;html=1;" parent="1" vertex="1">
          <mxGeometry x="1440" y="580" width="120" height="60" as="geometry" />
        </mxCell>
        <mxCell id="jJ58ylBw81bUSnSEe0YI-125" value="&lt;font style=&quot;font-size: 24px;&quot;&gt;a&lt;/font&gt;" style="rounded=0;whiteSpace=wrap;html=1;" parent="1" vertex="1">
          <mxGeometry x="1200" y="580" width="120" height="60" as="geometry" />
        </mxCell>
        <mxCell id="jJ58ylBw81bUSnSEe0YI-126" value="&lt;font style=&quot;font-size: 24px;&quot;&gt;b&lt;/font&gt;" style="rounded=0;whiteSpace=wrap;html=1;" parent="1" vertex="1">
          <mxGeometry x="1200" y="640" width="120" height="60" as="geometry" />
        </mxCell>
        <mxCell id="jJ58ylBw81bUSnSEe0YI-127" value="&lt;font style=&quot;font-size: 24px;&quot;&gt;4&lt;/font&gt;" style="rounded=0;whiteSpace=wrap;html=1;" parent="1" vertex="1">
          <mxGeometry x="1320" y="640" width="120" height="60" as="geometry" />
        </mxCell>
        <mxCell id="jJ58ylBw81bUSnSEe0YI-128" value="&lt;span style=&quot;font-size: 24px;&quot;&gt;c&lt;/span&gt;" style="rounded=0;whiteSpace=wrap;html=1;" parent="1" vertex="1">
          <mxGeometry x="1440" y="640" width="120" height="60" as="geometry" />
        </mxCell>
        <mxCell id="jJ58ylBw81bUSnSEe0YI-129" value="&lt;font style=&quot;font-size: 24px;&quot;&gt;c&lt;/font&gt;" style="rounded=0;whiteSpace=wrap;html=1;" parent="1" vertex="1">
          <mxGeometry x="1200" y="700" width="120" height="60" as="geometry" />
        </mxCell>
        <mxCell id="jJ58ylBw81bUSnSEe0YI-130" value="&lt;font style=&quot;font-size: 24px;&quot;&gt;3&lt;/font&gt;" style="rounded=0;whiteSpace=wrap;html=1;" parent="1" vertex="1">
          <mxGeometry x="1320" y="700" width="120" height="60" as="geometry" />
        </mxCell>
        <mxCell id="jJ58ylBw81bUSnSEe0YI-131" value="&lt;font style=&quot;font-size: 24px;&quot;&gt;a&lt;/font&gt;" style="rounded=0;whiteSpace=wrap;html=1;" parent="1" vertex="1">
          <mxGeometry x="1440" y="700" width="120" height="60" as="geometry" />
        </mxCell>
        <mxCell id="jJ58ylBw81bUSnSEe0YI-132" value="&lt;font style=&quot;font-size: 24px;&quot;&gt;5&lt;/font&gt;" style="rounded=0;whiteSpace=wrap;html=1;" parent="1" vertex="1">
          <mxGeometry x="1320" y="760" width="120" height="60" as="geometry" />
        </mxCell>
        <mxCell id="jJ58ylBw81bUSnSEe0YI-133" value="&lt;font style=&quot;font-size: 24px;&quot;&gt;d&lt;/font&gt;" style="rounded=0;whiteSpace=wrap;html=1;" parent="1" vertex="1">
          <mxGeometry x="1200" y="760" width="120" height="60" as="geometry" />
        </mxCell>
        <mxCell id="jJ58ylBw81bUSnSEe0YI-134" value="&lt;font style=&quot;font-size: 24px;&quot;&gt;b&lt;/font&gt;" style="rounded=0;whiteSpace=wrap;html=1;" parent="1" vertex="1">
          <mxGeometry x="1440" y="760" width="120" height="60" as="geometry" />
        </mxCell>
        <mxCell id="jJ58ylBw81bUSnSEe0YI-135" value="&lt;font style=&quot;font-size: 24px;&quot;&gt;e&lt;/font&gt;" style="rounded=0;whiteSpace=wrap;html=1;" parent="1" vertex="1">
          <mxGeometry x="1200" y="820" width="120" height="60" as="geometry" />
        </mxCell>
        <mxCell id="jJ58ylBw81bUSnSEe0YI-136" value="&lt;font style=&quot;font-size: 24px;&quot;&gt;24&lt;/font&gt;" style="rounded=0;whiteSpace=wrap;html=1;" parent="1" vertex="1">
          <mxGeometry x="1320" y="820" width="120" height="60" as="geometry" />
        </mxCell>
        <mxCell id="jJ58ylBw81bUSnSEe0YI-137" value="&lt;font style=&quot;font-size: 24px;&quot;&gt;b&lt;/font&gt;" style="rounded=0;whiteSpace=wrap;html=1;" parent="1" vertex="1">
          <mxGeometry x="1440" y="820" width="120" height="60" as="geometry" />
        </mxCell>
        <mxCell id="jJ58ylBw81bUSnSEe0YI-138" value="&lt;font style=&quot;font-size: 24px;&quot;&gt;f&lt;/font&gt;" style="rounded=0;whiteSpace=wrap;html=1;" parent="1" vertex="1">
          <mxGeometry x="1200" y="880" width="120" height="60" as="geometry" />
        </mxCell>
        <mxCell id="jJ58ylBw81bUSnSEe0YI-139" value="&lt;font style=&quot;font-size: 24px;&quot;&gt;11&lt;/font&gt;" style="rounded=0;whiteSpace=wrap;html=1;" parent="1" vertex="1">
          <mxGeometry x="1320" y="880" width="120" height="60" as="geometry" />
        </mxCell>
        <mxCell id="jJ58ylBw81bUSnSEe0YI-140" value="&lt;font style=&quot;font-size: 24px;&quot;&gt;b&lt;/font&gt;" style="rounded=0;whiteSpace=wrap;html=1;" parent="1" vertex="1">
          <mxGeometry x="1440" y="880" width="120" height="60" as="geometry" />
        </mxCell>
        <mxCell id="jJ58ylBw81bUSnSEe0YI-141" value="&lt;font style=&quot;font-size: 24px;&quot;&gt;shortest path&lt;/font&gt;" style="rounded=0;whiteSpace=wrap;html=1;" parent="1" vertex="1">
          <mxGeometry x="1720" y="520" width="120" height="60" as="geometry" />
        </mxCell>
        <mxCell id="jJ58ylBw81bUSnSEe0YI-142" value="&lt;font style=&quot;font-size: 24px;&quot;&gt;previous node&lt;/font&gt;" style="rounded=0;whiteSpace=wrap;html=1;" parent="1" vertex="1">
          <mxGeometry x="1840" y="520" width="120" height="60" as="geometry" />
        </mxCell>
        <mxCell id="jJ58ylBw81bUSnSEe0YI-143" value="&lt;font style=&quot;font-size: 24px;&quot;&gt;vertex&lt;/font&gt;" style="rounded=0;whiteSpace=wrap;html=1;" parent="1" vertex="1">
          <mxGeometry x="1600" y="520" width="120" height="60" as="geometry" />
        </mxCell>
        <mxCell id="jJ58ylBw81bUSnSEe0YI-144" value="&lt;font style=&quot;font-size: 24px;&quot;&gt;0&lt;/font&gt;" style="rounded=0;whiteSpace=wrap;html=1;" parent="1" vertex="1">
          <mxGeometry x="1720" y="580" width="120" height="60" as="geometry" />
        </mxCell>
        <mxCell id="jJ58ylBw81bUSnSEe0YI-145" value="&lt;font style=&quot;font-size: 24px;&quot;&gt;unone&lt;/font&gt;" style="rounded=0;whiteSpace=wrap;html=1;" parent="1" vertex="1">
          <mxGeometry x="1840" y="580" width="120" height="60" as="geometry" />
        </mxCell>
        <mxCell id="jJ58ylBw81bUSnSEe0YI-146" value="&lt;font style=&quot;font-size: 24px;&quot;&gt;a&lt;/font&gt;" style="rounded=0;whiteSpace=wrap;html=1;" parent="1" vertex="1">
          <mxGeometry x="1600" y="580" width="120" height="60" as="geometry" />
        </mxCell>
        <mxCell id="jJ58ylBw81bUSnSEe0YI-147" value="&lt;font style=&quot;font-size: 24px;&quot;&gt;b&lt;/font&gt;" style="rounded=0;whiteSpace=wrap;html=1;" parent="1" vertex="1">
          <mxGeometry x="1600" y="640" width="120" height="60" as="geometry" />
        </mxCell>
        <mxCell id="jJ58ylBw81bUSnSEe0YI-148" value="&lt;font style=&quot;font-size: 24px;&quot;&gt;4&lt;/font&gt;" style="rounded=0;whiteSpace=wrap;html=1;" parent="1" vertex="1">
          <mxGeometry x="1720" y="640" width="120" height="60" as="geometry" />
        </mxCell>
        <mxCell id="jJ58ylBw81bUSnSEe0YI-149" value="&lt;span style=&quot;font-size: 24px;&quot;&gt;c&lt;/span&gt;" style="rounded=0;whiteSpace=wrap;html=1;" parent="1" vertex="1">
          <mxGeometry x="1840" y="640" width="120" height="60" as="geometry" />
        </mxCell>
        <mxCell id="jJ58ylBw81bUSnSEe0YI-150" value="&lt;span style=&quot;font-size: 24px;&quot;&gt;c&lt;/span&gt;" style="rounded=0;whiteSpace=wrap;html=1;" parent="1" vertex="1">
          <mxGeometry x="1600" y="700" width="120" height="60" as="geometry" />
        </mxCell>
        <mxCell id="jJ58ylBw81bUSnSEe0YI-151" value="&lt;font style=&quot;font-size: 24px;&quot;&gt;3&lt;/font&gt;" style="rounded=0;whiteSpace=wrap;html=1;" parent="1" vertex="1">
          <mxGeometry x="1720" y="700" width="120" height="60" as="geometry" />
        </mxCell>
        <mxCell id="jJ58ylBw81bUSnSEe0YI-152" value="&lt;font style=&quot;font-size: 24px;&quot;&gt;a&lt;/font&gt;" style="rounded=0;whiteSpace=wrap;html=1;" parent="1" vertex="1">
          <mxGeometry x="1840" y="700" width="120" height="60" as="geometry" />
        </mxCell>
        <mxCell id="jJ58ylBw81bUSnSEe0YI-153" value="&lt;font style=&quot;font-size: 24px;&quot;&gt;5&lt;/font&gt;" style="rounded=0;whiteSpace=wrap;html=1;" parent="1" vertex="1">
          <mxGeometry x="1720" y="760" width="120" height="60" as="geometry" />
        </mxCell>
        <mxCell id="jJ58ylBw81bUSnSEe0YI-154" value="&lt;font style=&quot;font-size: 24px;&quot;&gt;d&lt;/font&gt;" style="rounded=0;whiteSpace=wrap;html=1;" parent="1" vertex="1">
          <mxGeometry x="1600" y="760" width="120" height="60" as="geometry" />
        </mxCell>
        <mxCell id="jJ58ylBw81bUSnSEe0YI-155" value="&lt;font style=&quot;font-size: 24px;&quot;&gt;b&lt;/font&gt;" style="rounded=0;whiteSpace=wrap;html=1;" parent="1" vertex="1">
          <mxGeometry x="1840" y="760" width="120" height="60" as="geometry" />
        </mxCell>
        <mxCell id="jJ58ylBw81bUSnSEe0YI-156" value="&lt;font style=&quot;font-size: 24px;&quot;&gt;e&lt;/font&gt;" style="rounded=0;whiteSpace=wrap;html=1;" parent="1" vertex="1">
          <mxGeometry x="1600" y="820" width="120" height="60" as="geometry" />
        </mxCell>
        <mxCell id="jJ58ylBw81bUSnSEe0YI-157" value="&lt;font style=&quot;font-size: 24px;&quot;&gt;24&lt;/font&gt;" style="rounded=0;whiteSpace=wrap;html=1;" parent="1" vertex="1">
          <mxGeometry x="1720" y="820" width="120" height="60" as="geometry" />
        </mxCell>
        <mxCell id="jJ58ylBw81bUSnSEe0YI-158" value="&lt;font style=&quot;font-size: 24px;&quot;&gt;b&lt;/font&gt;" style="rounded=0;whiteSpace=wrap;html=1;" parent="1" vertex="1">
          <mxGeometry x="1840" y="820" width="120" height="60" as="geometry" />
        </mxCell>
        <mxCell id="jJ58ylBw81bUSnSEe0YI-159" value="&lt;font style=&quot;font-size: 24px;&quot;&gt;f&lt;/font&gt;" style="rounded=0;whiteSpace=wrap;html=1;" parent="1" vertex="1">
          <mxGeometry x="1600" y="880" width="120" height="60" as="geometry" />
        </mxCell>
        <mxCell id="jJ58ylBw81bUSnSEe0YI-160" value="&lt;font style=&quot;font-size: 24px;&quot;&gt;6&lt;/font&gt;" style="rounded=0;whiteSpace=wrap;html=1;" parent="1" vertex="1">
          <mxGeometry x="1720" y="880" width="120" height="60" as="geometry" />
        </mxCell>
        <mxCell id="jJ58ylBw81bUSnSEe0YI-161" value="&lt;font style=&quot;font-size: 24px;&quot;&gt;d&lt;/font&gt;" style="rounded=0;whiteSpace=wrap;html=1;" parent="1" vertex="1">
          <mxGeometry x="1840" y="880" width="120" height="60" as="geometry" />
        </mxCell>
        <mxCell id="jJ58ylBw81bUSnSEe0YI-230" value="a" style="ellipse;whiteSpace=wrap;html=1;aspect=fixed;fillColor=#d5e8d4;strokeColor=#82b366;" parent="1" vertex="1">
          <mxGeometry x="830" y="-20" width="80" height="80" as="geometry" />
        </mxCell>
        <mxCell id="jJ58ylBw81bUSnSEe0YI-231" value="b" style="ellipse;whiteSpace=wrap;html=1;aspect=fixed;fillColor=#d5e8d4;strokeColor=#82b366;" parent="1" vertex="1">
          <mxGeometry x="1150" y="-20" width="80" height="80" as="geometry" />
        </mxCell>
        <mxCell id="jJ58ylBw81bUSnSEe0YI-232" value="c" style="ellipse;whiteSpace=wrap;html=1;aspect=fixed;fillColor=#d5e8d4;strokeColor=#82b366;" parent="1" vertex="1">
          <mxGeometry x="830" y="250" width="80" height="80" as="geometry" />
        </mxCell>
        <mxCell id="jJ58ylBw81bUSnSEe0YI-233" value="d" style="ellipse;whiteSpace=wrap;html=1;aspect=fixed;fillColor=#d5e8d4;strokeColor=#82b366;" parent="1" vertex="1">
          <mxGeometry x="1150" y="250" width="80" height="80" as="geometry" />
        </mxCell>
        <mxCell id="jJ58ylBw81bUSnSEe0YI-234" value="e" style="ellipse;whiteSpace=wrap;html=1;aspect=fixed;fillColor=#d5e8d4;strokeColor=#82b366;" parent="1" vertex="1">
          <mxGeometry x="1480" y="-20" width="80" height="80" as="geometry" />
        </mxCell>
        <mxCell id="jJ58ylBw81bUSnSEe0YI-235" value="" style="endArrow=classic;html=1;rounded=0;" parent="1" edge="1">
          <mxGeometry width="50" height="50" relative="1" as="geometry">
            <mxPoint x="869.5" y="70" as="sourcePoint" />
            <mxPoint x="870" y="240" as="targetPoint" />
          </mxGeometry>
        </mxCell>
        <mxCell id="jJ58ylBw81bUSnSEe0YI-236" value="" style="endArrow=classic;html=1;rounded=0;" parent="1" edge="1">
          <mxGeometry width="50" height="50" relative="1" as="geometry">
            <mxPoint x="1190" y="70" as="sourcePoint" />
            <mxPoint x="1190" y="230" as="targetPoint" />
          </mxGeometry>
        </mxCell>
        <mxCell id="jJ58ylBw81bUSnSEe0YI-237" value="" style="endArrow=classic;html=1;rounded=0;" parent="1" edge="1">
          <mxGeometry width="50" height="50" relative="1" as="geometry">
            <mxPoint x="1230" y="50" as="sourcePoint" />
            <mxPoint x="1450" y="230" as="targetPoint" />
          </mxGeometry>
        </mxCell>
        <mxCell id="jJ58ylBw81bUSnSEe0YI-239" value="3" style="text;html=1;strokeColor=none;fillColor=none;align=center;verticalAlign=middle;whiteSpace=wrap;rounded=0;" parent="1" vertex="1">
          <mxGeometry x="1005" y="270" width="60" height="30" as="geometry" />
        </mxCell>
        <mxCell id="jJ58ylBw81bUSnSEe0YI-240" value="1" style="text;html=1;strokeColor=none;fillColor=none;align=center;verticalAlign=middle;whiteSpace=wrap;rounded=0;" parent="1" vertex="1">
          <mxGeometry x="1180" y="140" width="60" height="30" as="geometry" />
        </mxCell>
        <mxCell id="jJ58ylBw81bUSnSEe0YI-241" value="9" style="text;html=1;strokeColor=none;fillColor=none;align=center;verticalAlign=middle;whiteSpace=wrap;rounded=0;" parent="1" vertex="1">
          <mxGeometry x="1000" y="-10" width="60" height="30" as="geometry" />
        </mxCell>
        <mxCell id="jJ58ylBw81bUSnSEe0YI-242" value="3" style="text;html=1;strokeColor=none;fillColor=none;align=center;verticalAlign=middle;whiteSpace=wrap;rounded=0;" parent="1" vertex="1">
          <mxGeometry x="820" y="130" width="60" height="30" as="geometry" />
        </mxCell>
        <mxCell id="jJ58ylBw81bUSnSEe0YI-243" value="2" style="text;html=1;strokeColor=none;fillColor=none;align=center;verticalAlign=middle;whiteSpace=wrap;rounded=0;" parent="1" vertex="1">
          <mxGeometry x="1510" y="140" width="60" height="30" as="geometry" />
        </mxCell>
        <mxCell id="jJ58ylBw81bUSnSEe0YI-244" value="" style="endArrow=classic;html=1;rounded=0;" parent="1" edge="1">
          <mxGeometry width="50" height="50" relative="1" as="geometry">
            <mxPoint x="934" y="19.5" as="sourcePoint" />
            <mxPoint x="1126" y="19.5" as="targetPoint" />
          </mxGeometry>
        </mxCell>
        <mxCell id="jJ58ylBw81bUSnSEe0YI-245" value="20" style="text;html=1;strokeColor=none;fillColor=none;align=center;verticalAlign=middle;whiteSpace=wrap;rounded=0;" parent="1" vertex="1">
          <mxGeometry x="1330" y="-10" width="60" height="30" as="geometry" />
        </mxCell>
        <mxCell id="jJ58ylBw81bUSnSEe0YI-246" value="f" style="ellipse;whiteSpace=wrap;html=1;aspect=fixed;fillColor=#d5e8d4;strokeColor=#82b366;" parent="1" vertex="1">
          <mxGeometry x="1480" y="250" width="80" height="80" as="geometry" />
        </mxCell>
        <mxCell id="jJ58ylBw81bUSnSEe0YI-247" value="" style="endArrow=classic;html=1;rounded=0;" parent="1" edge="1">
          <mxGeometry width="50" height="50" relative="1" as="geometry">
            <mxPoint x="920" y="250" as="sourcePoint" />
            <mxPoint x="1140" y="70" as="targetPoint" />
          </mxGeometry>
        </mxCell>
        <mxCell id="jJ58ylBw81bUSnSEe0YI-248" value="" style="endArrow=classic;html=1;rounded=0;" parent="1" edge="1">
          <mxGeometry width="50" height="50" relative="1" as="geometry">
            <mxPoint x="1260" y="19" as="sourcePoint" />
            <mxPoint x="1452" y="19" as="targetPoint" />
          </mxGeometry>
        </mxCell>
        <mxCell id="jJ58ylBw81bUSnSEe0YI-249" value="1" style="text;html=1;strokeColor=none;fillColor=none;align=center;verticalAlign=middle;whiteSpace=wrap;rounded=0;" parent="1" vertex="1">
          <mxGeometry x="990" y="130" width="60" height="30" as="geometry" />
        </mxCell>
        <mxCell id="jJ58ylBw81bUSnSEe0YI-250" value="6" style="rounded=0;whiteSpace=wrap;html=1;" parent="1" vertex="1">
          <mxGeometry x="1170" y="340" width="40" height="40" as="geometry" />
        </mxCell>
        <mxCell id="jJ58ylBw81bUSnSEe0YI-253" value="9" style="rounded=0;whiteSpace=wrap;html=1;" parent="1" vertex="1">
          <mxGeometry x="1170" y="-70" width="40" height="40" as="geometry" />
        </mxCell>
        <mxCell id="jJ58ylBw81bUSnSEe0YI-254" value="4" style="rounded=0;whiteSpace=wrap;html=1;" parent="1" vertex="1">
          <mxGeometry x="1170" y="-120" width="40" height="40" as="geometry" />
        </mxCell>
        <mxCell id="jJ58ylBw81bUSnSEe0YI-255" value="" style="endArrow=none;html=1;rounded=0;strokeColor=#FF0080;" parent="1" edge="1">
          <mxGeometry width="50" height="50" relative="1" as="geometry">
            <mxPoint x="1165" y="-25" as="sourcePoint" />
            <mxPoint x="1215" y="-75" as="targetPoint" />
          </mxGeometry>
        </mxCell>
        <mxCell id="jJ58ylBw81bUSnSEe0YI-256" value="" style="endArrow=classic;html=1;rounded=0;" parent="1" edge="1">
          <mxGeometry width="50" height="50" relative="1" as="geometry">
            <mxPoint x="934" y="300" as="sourcePoint" />
            <mxPoint x="1126" y="300" as="targetPoint" />
          </mxGeometry>
        </mxCell>
        <mxCell id="jJ58ylBw81bUSnSEe0YI-257" value="" style="endArrow=classic;html=1;rounded=0;" parent="1" edge="1">
          <mxGeometry width="50" height="50" relative="1" as="geometry">
            <mxPoint x="1264" y="300" as="sourcePoint" />
            <mxPoint x="1456" y="300" as="targetPoint" />
          </mxGeometry>
        </mxCell>
        <mxCell id="jJ58ylBw81bUSnSEe0YI-258" value="1" style="text;html=1;strokeColor=none;fillColor=none;align=center;verticalAlign=middle;whiteSpace=wrap;rounded=0;" parent="1" vertex="1">
          <mxGeometry x="1330" y="270" width="60" height="30" as="geometry" />
        </mxCell>
        <mxCell id="jJ58ylBw81bUSnSEe0YI-259" value="7" style="text;html=1;strokeColor=none;fillColor=none;align=center;verticalAlign=middle;whiteSpace=wrap;rounded=0;" parent="1" vertex="1">
          <mxGeometry x="1340" y="120" width="60" height="30" as="geometry" />
        </mxCell>
        <mxCell id="jJ58ylBw81bUSnSEe0YI-260" value="" style="endArrow=classic;html=1;rounded=0;" parent="1" edge="1">
          <mxGeometry width="50" height="50" relative="1" as="geometry">
            <mxPoint x="1520" y="240" as="sourcePoint" />
            <mxPoint x="1519.5" y="70" as="targetPoint" />
          </mxGeometry>
        </mxCell>
        <mxCell id="jJ58ylBw81bUSnSEe0YI-261" value="11" style="rounded=0;whiteSpace=wrap;html=1;" parent="1" vertex="1">
          <mxGeometry x="1500" y="-70" width="40" height="40" as="geometry" />
        </mxCell>
        <mxCell id="jJ58ylBw81bUSnSEe0YI-262" value="8" style="rounded=0;whiteSpace=wrap;html=1;" parent="1" vertex="1">
          <mxGeometry x="1500" y="-120" width="40" height="40" as="geometry" />
        </mxCell>
        <mxCell id="jJ58ylBw81bUSnSEe0YI-263" value="24" style="endArrow=none;html=1;rounded=0;strokeColor=#FF0080;" parent="1" edge="1">
          <mxGeometry x="0.0182" width="50" height="50" relative="1" as="geometry">
            <mxPoint x="1495" y="-25" as="sourcePoint" />
            <mxPoint x="1545" y="-75" as="targetPoint" />
            <mxPoint as="offset" />
          </mxGeometry>
        </mxCell>
        <mxCell id="jJ58ylBw81bUSnSEe0YI-264" value="5" style="rounded=0;whiteSpace=wrap;html=1;" parent="1" vertex="1">
          <mxGeometry x="1170" y="390" width="40" height="40" as="geometry" />
        </mxCell>
        <mxCell id="jJ58ylBw81bUSnSEe0YI-266" value="" style="endArrow=none;html=1;rounded=0;strokeColor=#FF0080;" parent="1" edge="1">
          <mxGeometry width="50" height="50" relative="1" as="geometry">
            <mxPoint x="1165" y="385" as="sourcePoint" />
            <mxPoint x="1215" y="335" as="targetPoint" />
          </mxGeometry>
        </mxCell>
        <mxCell id="jJ58ylBw81bUSnSEe0YI-267" value="11" style="rounded=0;whiteSpace=wrap;html=1;" parent="1" vertex="1">
          <mxGeometry x="1520" y="340" width="40" height="40" as="geometry" />
        </mxCell>
        <mxCell id="jJ58ylBw81bUSnSEe0YI-268" value="6" style="rounded=0;whiteSpace=wrap;html=1;" parent="1" vertex="1">
          <mxGeometry x="1520" y="400" width="40" height="40" as="geometry" />
        </mxCell>
        <mxCell id="jJ58ylBw81bUSnSEe0YI-269" value="" style="endArrow=none;html=1;rounded=0;strokeColor=#FF0080;" parent="1" edge="1">
          <mxGeometry width="50" height="50" relative="1" as="geometry">
            <mxPoint x="1510" y="385" as="sourcePoint" />
            <mxPoint x="1560" y="335" as="targetPoint" />
          </mxGeometry>
        </mxCell>
        <mxCell id="jJ58ylBw81bUSnSEe0YI-270" value="&lt;font style=&quot;font-size: 24px;&quot;&gt;shortest path&lt;/font&gt;" style="rounded=0;whiteSpace=wrap;html=1;" parent="1" vertex="1">
          <mxGeometry x="2170" y="520" width="120" height="60" as="geometry" />
        </mxCell>
        <mxCell id="jJ58ylBw81bUSnSEe0YI-271" value="&lt;font style=&quot;font-size: 24px;&quot;&gt;previous node&lt;/font&gt;" style="rounded=0;whiteSpace=wrap;html=1;" parent="1" vertex="1">
          <mxGeometry x="2290" y="520" width="120" height="60" as="geometry" />
        </mxCell>
        <mxCell id="jJ58ylBw81bUSnSEe0YI-272" value="&lt;font style=&quot;font-size: 24px;&quot;&gt;vertex&lt;/font&gt;" style="rounded=0;whiteSpace=wrap;html=1;" parent="1" vertex="1">
          <mxGeometry x="2050" y="520" width="120" height="60" as="geometry" />
        </mxCell>
        <mxCell id="jJ58ylBw81bUSnSEe0YI-273" value="&lt;font style=&quot;font-size: 24px;&quot;&gt;0&lt;/font&gt;" style="rounded=0;whiteSpace=wrap;html=1;" parent="1" vertex="1">
          <mxGeometry x="2170" y="580" width="120" height="60" as="geometry" />
        </mxCell>
        <mxCell id="jJ58ylBw81bUSnSEe0YI-274" value="&lt;font style=&quot;font-size: 24px;&quot;&gt;unone&lt;/font&gt;" style="rounded=0;whiteSpace=wrap;html=1;" parent="1" vertex="1">
          <mxGeometry x="2290" y="580" width="120" height="60" as="geometry" />
        </mxCell>
        <mxCell id="jJ58ylBw81bUSnSEe0YI-275" value="&lt;font style=&quot;font-size: 24px;&quot;&gt;a&lt;/font&gt;" style="rounded=0;whiteSpace=wrap;html=1;" parent="1" vertex="1">
          <mxGeometry x="2050" y="580" width="120" height="60" as="geometry" />
        </mxCell>
        <mxCell id="jJ58ylBw81bUSnSEe0YI-276" value="&lt;font style=&quot;font-size: 24px;&quot;&gt;b&lt;/font&gt;" style="rounded=0;whiteSpace=wrap;html=1;" parent="1" vertex="1">
          <mxGeometry x="2050" y="640" width="120" height="60" as="geometry" />
        </mxCell>
        <mxCell id="jJ58ylBw81bUSnSEe0YI-277" value="&lt;font style=&quot;font-size: 24px;&quot;&gt;4&lt;/font&gt;" style="rounded=0;whiteSpace=wrap;html=1;" parent="1" vertex="1">
          <mxGeometry x="2170" y="640" width="120" height="60" as="geometry" />
        </mxCell>
        <mxCell id="jJ58ylBw81bUSnSEe0YI-278" value="&lt;span style=&quot;font-size: 24px;&quot;&gt;c&lt;/span&gt;" style="rounded=0;whiteSpace=wrap;html=1;" parent="1" vertex="1">
          <mxGeometry x="2290" y="640" width="120" height="60" as="geometry" />
        </mxCell>
        <mxCell id="jJ58ylBw81bUSnSEe0YI-279" value="&lt;span style=&quot;font-size: 24px;&quot;&gt;c&lt;/span&gt;" style="rounded=0;whiteSpace=wrap;html=1;" parent="1" vertex="1">
          <mxGeometry x="2050" y="700" width="120" height="60" as="geometry" />
        </mxCell>
        <mxCell id="jJ58ylBw81bUSnSEe0YI-280" value="&lt;font style=&quot;font-size: 24px;&quot;&gt;3&lt;/font&gt;" style="rounded=0;whiteSpace=wrap;html=1;" parent="1" vertex="1">
          <mxGeometry x="2170" y="700" width="120" height="60" as="geometry" />
        </mxCell>
        <mxCell id="jJ58ylBw81bUSnSEe0YI-281" value="&lt;font style=&quot;font-size: 24px;&quot;&gt;a&lt;/font&gt;" style="rounded=0;whiteSpace=wrap;html=1;" parent="1" vertex="1">
          <mxGeometry x="2290" y="700" width="120" height="60" as="geometry" />
        </mxCell>
        <mxCell id="jJ58ylBw81bUSnSEe0YI-282" value="&lt;font style=&quot;font-size: 24px;&quot;&gt;6&lt;/font&gt;" style="rounded=0;whiteSpace=wrap;html=1;" parent="1" vertex="1">
          <mxGeometry x="2170" y="760" width="120" height="60" as="geometry" />
        </mxCell>
        <mxCell id="jJ58ylBw81bUSnSEe0YI-283" value="&lt;font style=&quot;font-size: 24px;&quot;&gt;d&lt;/font&gt;" style="rounded=0;whiteSpace=wrap;html=1;" parent="1" vertex="1">
          <mxGeometry x="2050" y="760" width="120" height="60" as="geometry" />
        </mxCell>
        <mxCell id="jJ58ylBw81bUSnSEe0YI-284" value="&lt;font style=&quot;font-size: 24px;&quot;&gt;2&lt;/font&gt;" style="rounded=0;whiteSpace=wrap;html=1;" parent="1" vertex="1">
          <mxGeometry x="2290" y="760" width="120" height="60" as="geometry" />
        </mxCell>
        <mxCell id="jJ58ylBw81bUSnSEe0YI-285" value="&lt;font style=&quot;font-size: 24px;&quot;&gt;e&lt;/font&gt;" style="rounded=0;whiteSpace=wrap;html=1;" parent="1" vertex="1">
          <mxGeometry x="2050" y="820" width="120" height="60" as="geometry" />
        </mxCell>
        <mxCell id="jJ58ylBw81bUSnSEe0YI-286" value="&lt;font style=&quot;font-size: 24px;&quot;&gt;8&lt;/font&gt;" style="rounded=0;whiteSpace=wrap;html=1;" parent="1" vertex="1">
          <mxGeometry x="2170" y="820" width="120" height="60" as="geometry" />
        </mxCell>
        <mxCell id="jJ58ylBw81bUSnSEe0YI-287" value="&lt;font style=&quot;font-size: 24px;&quot;&gt;f&lt;/font&gt;" style="rounded=0;whiteSpace=wrap;html=1;" parent="1" vertex="1">
          <mxGeometry x="2290" y="820" width="120" height="60" as="geometry" />
        </mxCell>
        <mxCell id="jJ58ylBw81bUSnSEe0YI-288" value="&lt;font style=&quot;font-size: 24px;&quot;&gt;f&lt;/font&gt;" style="rounded=0;whiteSpace=wrap;html=1;" parent="1" vertex="1">
          <mxGeometry x="2050" y="880" width="120" height="60" as="geometry" />
        </mxCell>
        <mxCell id="jJ58ylBw81bUSnSEe0YI-289" value="&lt;font style=&quot;font-size: 24px;&quot;&gt;6&lt;/font&gt;" style="rounded=0;whiteSpace=wrap;html=1;" parent="1" vertex="1">
          <mxGeometry x="2170" y="880" width="120" height="60" as="geometry" />
        </mxCell>
        <mxCell id="jJ58ylBw81bUSnSEe0YI-290" value="&lt;font style=&quot;font-size: 24px;&quot;&gt;d&lt;/font&gt;" style="rounded=0;whiteSpace=wrap;html=1;" parent="1" vertex="1">
          <mxGeometry x="2290" y="880" width="120" height="60" as="geometry" />
        </mxCell>
      </root>
    </mxGraphModel>
  </diagram>
</mxfile>
